<svg xmlns="http://www.w3.org/2000/svg" viewBox="0 0 764 100">
    <path fill="#505b93" d="M29.5,98.4H0V1.2h29.5V98.4z"/>
    <path fill="#00aaa6" d="M96.7,98.4H67.2V1.2h29.5V98.4z"/>
    <path fill="#272d48" d="M96.7,98.4H29.5V1.2L96.7,98.4z"/>
    <path fill="#272d48" d="M102.6,54.5c0-6.2,1.3-11.8,4.1-16.7c2.7-5,6.7-8.8,11.9-11.6c5.2-2.8,11.4-4.2,18.6-4.2c1.1,0,2.8,0.1,5.2,0.3 c4.9,0.4,9.1,1.3,12.5,2.8c3.4,1.5,6.4,3.4,9.1,5.9v-7.2h25.8v74.7h-25.8v-7.2c-2.5,2.6-5.6,4.6-9.4,6.1c-3.8,1.5-7.9,2.4-12.1,2.6 c-0.9,0.1-2.3,0.1-4.1,0.1c-7.2,0-13.4-1.4-18.8-4.1c-5.4-2.7-9.5-6.6-12.4-11.5c-2.9-4.9-4.3-10.5-4.3-16.6V54.5z M128.4,63.9 c0,9.2,5.9,13.8,17.7,13.8c11.8,0,17.7-4.6,17.7-13.8v-5.6c0-9.3-5.9-14-17.7-14c-11.8,0-17.7,4.7-17.7,14V63.9z M208.3,98.4V47h-12.8V23.7l12.8-0.2V1.2h25.9l0.1,22.4h18.3V47h-18.4v51.4 M287.3,98.4h-25.9V23.6h25.9V98.4z M351,98.4H325l-31-74.8H320L338,68l18-44.5h25.9L351,98.4z M454.9,87.6c-4.1,4.2-8.8,7.3-14.1,9.3c-5.3,2-11.8,2.9-19.5,2.9c-8,0-15.1-1.4-21.3-4.2 c-6.2-2.8-11.1-6.7-14.7-11.6c-3.5-5-5.3-10.6-5.3-17V54.6c0-6.5,1.7-12.2,5.2-17.1c3.4-4.9,8.2-8.7,14.2-11.3c6-2.7,12.7-4,20-4 c8,0,15,1.5,21.2,4.3c6.1,2.9,10.9,7,14.4,12.4c3.4,5.4,5.2,11.6,5.2,18.7c0,1.7-0.2,4.2-0.7,7.7l-54.2,0.1v2.1 c0,4.1,1.5,7.3,4.4,9.4c2.9,2.2,6.9,3.2,11.8,3.2c4.6,0,8.5-0.6,11.8-1.8c3.2-1.2,6.4-3.5,9.4-6.8L454.9,87.6z M434.4,51.4 c0-3.1-1.4-5.5-4.2-7.1c-2.8-1.6-6.4-2.4-10.8-2.4s-7.9,0.8-10.5,2.4c-2.6,1.6-3.8,4-3.8,7.1H434.4z M466,98.4V1.2h56c9.9,0,17.8,1.9,23.7,5.6c5.9,3.7,10,8.2,12.2,13.3c2.3,5.1,3.4,10.1,3.4,15 c0,4.8-1.2,9.7-3.5,14.7c-2.3,5-6.4,9.2-12.2,12.8c-5.8,3.6-13.7,5.4-23.7,5.4h-30.2v30.5H466z M522,44.6c9,0,13.6-3.3,13.6-9.9 c0-6.9-4.6-10.3-13.7-10.3h-30.1v20.2H522z M593,98.4h-25.8V1.2H593v38h43.9v-38h25.8v97.2h-25.8V59.9H593V98.4z M668.6,98.4V1.2h56c9.9,0,17.8,1.9,23.7,5.6c5.9,3.7,10,8.2,12.2,13.3c2.3,5.1,3.4,10.1,3.4,15 c0,4.8-1.2,9.7-3.5,14.7c-2.3,5-6.4,9.2-12.2,12.8c-5.8,3.6-13.7,5.4-23.7,5.4h-30.2v30.5H668.6z M724.6,44.6c9,0,13.6-3.3,13.6-9.9 c0-6.9-4.6-10.3-13.7-10.3h-30.1v20.2H724.6z M291.1,20.2h-33.5V0h33.5V20.2z"/>
</svg>
